<svg width="68" height="68" viewBox="0 0 68 68" fill="none" xmlns="http://www.w3.org/2000/svg">
<path d="M61.7822 28.4508H59.5V28.3332H34V39.6665H50.0126C47.6765 46.2639 41.3993 50.9998 34 50.9998C24.6117 50.9998 17 43.3881 17 33.9998C17 24.6116 24.6117 16.9998 34 16.9998C38.3336 16.9998 42.2762 18.6347 45.2781 21.3051L53.2922 13.291C48.2318 8.57492 41.463 5.6665 34 5.6665C18.3529 5.6665 5.66666 18.3528 5.66666 33.9998C5.66666 49.6469 18.3529 62.3332 34 62.3332C49.6471 62.3332 62.3333 49.6469 62.3333 33.9998C62.3333 32.1001 62.1378 30.2457 61.7822 28.4508Z" fill="#FFC107"/>
<path d="M8.9335 20.8121L18.2424 27.639C20.7613 21.4028 26.8614 16.9998 34 16.9998C38.3336 16.9998 42.2762 18.6347 45.2781 21.3051L53.2922 13.291C48.2318 8.57492 41.463 5.6665 34 5.6665C23.1172 5.6665 13.6793 11.8106 8.9335 20.8121Z" fill="#FF3D00"/>
<path d="M34 62.3333C41.3185 62.3333 47.9683 59.5326 52.9961 54.978L44.2269 47.5575C41.3822 49.7122 37.8462 51 34 51C26.6305 51 20.3731 46.3009 18.0157 39.7432L8.77625 46.8619C13.4654 56.0377 22.9882 62.3333 34 62.3333Z" fill="#4CAF50"/>
<path d="M61.7823 28.4511H59.5V28.3335H34V39.6668H50.0126C48.8906 42.8359 46.852 45.5687 44.2227 47.5591C44.2241 47.5577 44.2255 47.5577 44.2269 47.5562L52.9961 54.9767C52.3756 55.5406 62.3333 48.1668 62.3333 34.0002C62.3333 32.1004 62.1378 30.246 61.7823 28.4511Z" fill="#1976D2"/>
</svg>
